<?xml version="1.0" encoding="UTF-8" ?>
<svg version="1.1" width="32" height="16" xmlns="http://www.w3.org/2000/svg" shape-rendering="crispEdges">
<rect x="6" y="0" width="1" height="1" fill="#9BADB7" />
<rect x="7" y="0" width="1" height="1" fill="#9BADB7" />
<rect x="8" y="0" width="1" height="1" fill="#9BADB7" />
<rect x="5" y="1" width="1" height="1" fill="#9BADB7" />
<rect x="6" y="1" width="1" height="1" fill="#9BADB7" />
<rect x="7" y="1" width="1" height="1" fill="#9BADB7" />
<rect x="8" y="1" width="1" height="1" fill="#9BADB7" />
<rect x="9" y="1" width="1" height="1" fill="#9BADB7" />
<rect x="22" y="1" width="1" height="1" fill="#9BADB7" />
<rect x="23" y="1" width="1" height="1" fill="#9BADB7" />
<rect x="24" y="1" width="1" height="1" fill="#9BADB7" />
<rect x="4" y="2" width="1" height="1" fill="#EEC39A" />
<rect x="5" y="2" width="1" height="1" fill="#9BADB7" />
<rect x="6" y="2" width="1" height="1" fill="#639BFF" />
<rect x="7" y="2" width="1" height="1" fill="#9BADB7" />
<rect x="8" y="2" width="1" height="1" fill="#639BFF" />
<rect x="9" y="2" width="1" height="1" fill="#9BADB7" />
<rect x="10" y="2" width="1" height="1" fill="#EEC39A" />
<rect x="21" y="2" width="1" height="1" fill="#9BADB7" />
<rect x="22" y="2" width="1" height="1" fill="#9BADB7" />
<rect x="23" y="2" width="1" height="1" fill="#9BADB7" />
<rect x="24" y="2" width="1" height="1" fill="#9BADB7" />
<rect x="25" y="2" width="1" height="1" fill="#9BADB7" />
<rect x="5" y="3" width="1" height="1" fill="#9BADB7" />
<rect x="6" y="3" width="1" height="1" fill="#9BADB7" />
<rect x="7" y="3" width="1" height="1" fill="#EEC39A" />
<rect x="8" y="3" width="1" height="1" fill="#9BADB7" />
<rect x="9" y="3" width="1" height="1" fill="#9BADB7" />
<rect x="20" y="3" width="1" height="1" fill="#EEC39A" />
<rect x="21" y="3" width="1" height="1" fill="#9BADB7" />
<rect x="22" y="3" width="1" height="1" fill="#639BFF" />
<rect x="23" y="3" width="1" height="1" fill="#9BADB7" />
<rect x="24" y="3" width="1" height="1" fill="#639BFF" />
<rect x="25" y="3" width="1" height="1" fill="#9BADB7" />
<rect x="26" y="3" width="1" height="1" fill="#EEC39A" />
<rect x="6" y="4" width="1" height="1" fill="#9BADB7" />
<rect x="7" y="4" width="1" height="1" fill="#FFFFFF" />
<rect x="8" y="4" width="1" height="1" fill="#9BADB7" />
<rect x="21" y="4" width="1" height="1" fill="#9BADB7" />
<rect x="22" y="4" width="1" height="1" fill="#9BADB7" />
<rect x="23" y="4" width="1" height="1" fill="#EEC39A" />
<rect x="24" y="4" width="1" height="1" fill="#9BADB7" />
<rect x="25" y="4" width="1" height="1" fill="#9BADB7" />
<rect x="6" y="5" width="1" height="1" fill="#EEC39A" />
<rect x="7" y="5" width="1" height="1" fill="#EEC39A" />
<rect x="8" y="5" width="1" height="1" fill="#EEC39A" />
<rect x="22" y="5" width="1" height="1" fill="#9BADB7" />
<rect x="23" y="5" width="1" height="1" fill="#FFFFFF" />
<rect x="24" y="5" width="1" height="1" fill="#9BADB7" />
<rect x="5" y="6" width="1" height="1" fill="#4B692F" />
<rect x="6" y="6" width="1" height="1" fill="#4B692F" />
<rect x="7" y="6" width="1" height="1" fill="#7B2929" />
<rect x="8" y="6" width="1" height="1" fill="#4B692F" />
<rect x="9" y="6" width="1" height="1" fill="#4B692F" />
<rect x="22" y="6" width="1" height="1" fill="#EEC39A" />
<rect x="23" y="6" width="1" height="1" fill="#EEC39A" />
<rect x="24" y="6" width="1" height="1" fill="#EEC39A" />
<rect x="2" y="7" width="1" height="1" fill="#EEC39A" />
<rect x="3" y="7" width="1" height="1" fill="#EEC39A" />
<rect x="4" y="7" width="1" height="1" fill="#4B692F" />
<rect x="5" y="7" width="1" height="1" fill="#847E87" />
<rect x="6" y="7" width="1" height="1" fill="#4B692F" />
<rect x="7" y="7" width="1" height="1" fill="#7B2929" />
<rect x="8" y="7" width="1" height="1" fill="#4B692F" />
<rect x="9" y="7" width="1" height="1" fill="#847E87" />
<rect x="10" y="7" width="1" height="1" fill="#4B692F" />
<rect x="11" y="7" width="1" height="1" fill="#EEC39A" />
<rect x="12" y="7" width="1" height="1" fill="#EEC39A" />
<rect x="21" y="7" width="1" height="1" fill="#4B692F" />
<rect x="22" y="7" width="1" height="1" fill="#4B692F" />
<rect x="23" y="7" width="1" height="1" fill="#7B2929" />
<rect x="24" y="7" width="1" height="1" fill="#4B692F" />
<rect x="25" y="7" width="1" height="1" fill="#4B692F" />
<rect x="1" y="8" width="1" height="1" fill="#EEC39A" />
<rect x="2" y="8" width="1" height="1" fill="#EEC39A" />
<rect x="4" y="8" width="1" height="1" fill="#663931" />
<rect x="5" y="8" width="1" height="1" fill="#847E87" />
<rect x="6" y="8" width="1" height="1" fill="#663931" />
<rect x="7" y="8" width="1" height="1" fill="#7B2929" />
<rect x="8" y="8" width="1" height="1" fill="#663931" />
<rect x="9" y="8" width="1" height="1" fill="#847E87" />
<rect x="10" y="8" width="1" height="1" fill="#663931" />
<rect x="12" y="8" width="1" height="1" fill="#EEC39A" />
<rect x="13" y="8" width="1" height="1" fill="#EEC39A" />
<rect x="18" y="8" width="1" height="1" fill="#EEC39A" />
<rect x="19" y="8" width="1" height="1" fill="#EEC39A" />
<rect x="20" y="8" width="1" height="1" fill="#4B692F" />
<rect x="21" y="8" width="1" height="1" fill="#847E87" />
<rect x="22" y="8" width="1" height="1" fill="#4B692F" />
<rect x="23" y="8" width="1" height="1" fill="#7B2929" />
<rect x="24" y="8" width="1" height="1" fill="#4B692F" />
<rect x="25" y="8" width="1" height="1" fill="#847E87" />
<rect x="26" y="8" width="1" height="1" fill="#4B692F" />
<rect x="27" y="8" width="1" height="1" fill="#EEC39A" />
<rect x="28" y="8" width="1" height="1" fill="#EEC39A" />
<rect x="1" y="9" width="1" height="1" fill="#EEC39A" />
<rect x="2" y="9" width="1" height="1" fill="#EEC39A" />
<rect x="4" y="9" width="1" height="1" fill="#663931" />
<rect x="5" y="9" width="1" height="1" fill="#663931" />
<rect x="6" y="9" width="1" height="1" fill="#663931" />
<rect x="7" y="9" width="1" height="1" fill="#7B2929" />
<rect x="8" y="9" width="1" height="1" fill="#663931" />
<rect x="9" y="9" width="1" height="1" fill="#663931" />
<rect x="10" y="9" width="1" height="1" fill="#663931" />
<rect x="12" y="9" width="1" height="1" fill="#EEC39A" />
<rect x="13" y="9" width="1" height="1" fill="#EEC39A" />
<rect x="17" y="9" width="1" height="1" fill="#EEC39A" />
<rect x="18" y="9" width="1" height="1" fill="#EEC39A" />
<rect x="20" y="9" width="1" height="1" fill="#663931" />
<rect x="21" y="9" width="1" height="1" fill="#847E87" />
<rect x="22" y="9" width="1" height="1" fill="#663931" />
<rect x="23" y="9" width="1" height="1" fill="#7B2929" />
<rect x="24" y="9" width="1" height="1" fill="#663931" />
<rect x="25" y="9" width="1" height="1" fill="#847E87" />
<rect x="26" y="9" width="1" height="1" fill="#663931" />
<rect x="28" y="9" width="1" height="1" fill="#EEC39A" />
<rect x="29" y="9" width="1" height="1" fill="#EEC39A" />
<rect x="1" y="10" width="1" height="1" fill="#EEC39A" />
<rect x="2" y="10" width="1" height="1" fill="#EEC39A" />
<rect x="3" y="10" width="1" height="1" fill="#EEC39A" />
<rect x="4" y="10" width="1" height="1" fill="#663931" />
<rect x="5" y="10" width="1" height="1" fill="#663931" />
<rect x="6" y="10" width="1" height="1" fill="#663931" />
<rect x="7" y="10" width="1" height="1" fill="#7B2929" />
<rect x="8" y="10" width="1" height="1" fill="#663931" />
<rect x="9" y="10" width="1" height="1" fill="#663931" />
<rect x="10" y="10" width="1" height="1" fill="#663931" />
<rect x="11" y="10" width="1" height="1" fill="#EEC39A" />
<rect x="12" y="10" width="1" height="1" fill="#EEC39A" />
<rect x="13" y="10" width="1" height="1" fill="#EEC39A" />
<rect x="17" y="10" width="1" height="1" fill="#EEC39A" />
<rect x="18" y="10" width="1" height="1" fill="#EEC39A" />
<rect x="20" y="10" width="1" height="1" fill="#663931" />
<rect x="21" y="10" width="1" height="1" fill="#663931" />
<rect x="22" y="10" width="1" height="1" fill="#663931" />
<rect x="23" y="10" width="1" height="1" fill="#7B2929" />
<rect x="24" y="10" width="1" height="1" fill="#663931" />
<rect x="25" y="10" width="1" height="1" fill="#663931" />
<rect x="26" y="10" width="1" height="1" fill="#663931" />
<rect x="28" y="10" width="1" height="1" fill="#EEC39A" />
<rect x="29" y="10" width="1" height="1" fill="#EEC39A" />
<rect x="2" y="11" width="1" height="1" fill="#EEC39A" />
<rect x="4" y="11" width="1" height="1" fill="#663931" />
<rect x="5" y="11" width="1" height="1" fill="#663931" />
<rect x="6" y="11" width="1" height="1" fill="#663931" />
<rect x="7" y="11" width="1" height="1" fill="#7B2929" />
<rect x="8" y="11" width="1" height="1" fill="#663931" />
<rect x="9" y="11" width="1" height="1" fill="#663931" />
<rect x="10" y="11" width="1" height="1" fill="#663931" />
<rect x="12" y="11" width="1" height="1" fill="#EEC39A" />
<rect x="17" y="11" width="1" height="1" fill="#EEC39A" />
<rect x="18" y="11" width="1" height="1" fill="#EEC39A" />
<rect x="19" y="11" width="1" height="1" fill="#EEC39A" />
<rect x="20" y="11" width="1" height="1" fill="#663931" />
<rect x="21" y="11" width="1" height="1" fill="#663931" />
<rect x="22" y="11" width="1" height="1" fill="#663931" />
<rect x="23" y="11" width="1" height="1" fill="#7B2929" />
<rect x="24" y="11" width="1" height="1" fill="#663931" />
<rect x="25" y="11" width="1" height="1" fill="#663931" />
<rect x="26" y="11" width="1" height="1" fill="#663931" />
<rect x="27" y="11" width="1" height="1" fill="#EEC39A" />
<rect x="28" y="11" width="1" height="1" fill="#EEC39A" />
<rect x="29" y="11" width="1" height="1" fill="#EEC39A" />
<rect x="6" y="12" width="1" height="1" fill="#847E87" />
<rect x="7" y="12" width="1" height="1" fill="#847E87" />
<rect x="8" y="12" width="1" height="1" fill="#847E87" />
<rect x="18" y="12" width="1" height="1" fill="#EEC39A" />
<rect x="20" y="12" width="1" height="1" fill="#663931" />
<rect x="21" y="12" width="1" height="1" fill="#663931" />
<rect x="22" y="12" width="1" height="1" fill="#663931" />
<rect x="23" y="12" width="1" height="1" fill="#7B2929" />
<rect x="24" y="12" width="1" height="1" fill="#663931" />
<rect x="25" y="12" width="1" height="1" fill="#663931" />
<rect x="26" y="12" width="1" height="1" fill="#663931" />
<rect x="28" y="12" width="1" height="1" fill="#EEC39A" />
<rect x="6" y="13" width="1" height="1" fill="#847E87" />
<rect x="8" y="13" width="1" height="1" fill="#847E87" />
<rect x="22" y="13" width="1" height="1" fill="#847E87" />
<rect x="24" y="13" width="1" height="1" fill="#847E87" />
<rect x="5" y="14" width="1" height="1" fill="#AEA937" />
<rect x="6" y="14" width="1" height="1" fill="#663931" />
<rect x="8" y="14" width="1" height="1" fill="#663931" />
<rect x="9" y="14" width="1" height="1" fill="#AEA937" />
<rect x="21" y="14" width="1" height="1" fill="#AEA937" />
<rect x="22" y="14" width="1" height="1" fill="#663931" />
<rect x="24" y="14" width="1" height="1" fill="#663931" />
<rect x="25" y="14" width="1" height="1" fill="#AEA937" />
<rect x="4" y="15" width="1" height="1" fill="#663931" />
<rect x="5" y="15" width="1" height="1" fill="#663931" />
<rect x="6" y="15" width="1" height="1" fill="#663931" />
<rect x="8" y="15" width="1" height="1" fill="#663931" />
<rect x="9" y="15" width="1" height="1" fill="#663931" />
<rect x="10" y="15" width="1" height="1" fill="#663931" />
<rect x="20" y="15" width="1" height="1" fill="#663931" />
<rect x="21" y="15" width="1" height="1" fill="#663931" />
<rect x="22" y="15" width="1" height="1" fill="#663931" />
<rect x="24" y="15" width="1" height="1" fill="#663931" />
<rect x="25" y="15" width="1" height="1" fill="#663931" />
<rect x="26" y="15" width="1" height="1" fill="#663931" />
</svg>